<?xml version="1.0" encoding="UTF-8"?>
<svg id="_レイヤー_2" data-name="レイヤー_2" xmlns="http://www.w3.org/2000/svg" viewBox="0 0 132 37">
  <defs>
    <style>
      .cls-1 {
        fill: #fff;
      }

      .cls-2 {
        fill: #231815;
      }
    </style>
  </defs>
  <g id="_レイヤー_1-2" data-name="レイヤー_1">
    <g>
      <polygon class="cls-1" points="131 1 1 1 1 36 131 36 120.02 18.5 131 1"/>
      <path class="cls-2" d="M131,37H1c-.55,0-1-.45-1-1V1C0,.45.45,0,1,0h130c.36,0,.7.2.88.52s.17.71-.03,1.02l-10.64,16.97,10.64,16.97c.19.31.2.7.03,1.02s-.51.52-.88.52ZM2,35h127.19l-10.02-15.97c-.2-.32-.2-.74,0-1.06l10.02-15.97H2v33Z"/>
    </g>
  </g>
</svg>