<?xml version="1.0" encoding="UTF-8" standalone="no"?>
<!DOCTYPE svg PUBLIC "-//W3C//DTD SVG 20010904//EN"
              "http://www.w3.org/TR/2001/REC-SVG-20010904/DTD/svg10.dtd">

<svg xmlns="http://www.w3.org/2000/svg"
     width="0.533333in" height="0.533333in"
     viewBox="0 0 48 48">
  <path id="darkbrown"
        fill="#63D3B" stroke="none" stroke-width="1"
        d="M 19.84,44.75
           C 19.43,44.75 19.22,44.50 19.22,43.98
             19.22,43.98 19.22,36.98 19.22,36.98
             19.22,36.98 17.20,36.98 17.20,36.98
             16.69,36.98 16.44,36.78 16.44,36.38
             16.44,35.96 16.66,35.75 17.09,35.75
             17.09,35.75 21.77,35.75 21.77,35.75
             22.21,35.75 22.44,35.96 22.44,36.38
             22.44,36.78 22.25,36.98 21.88,36.98
             21.88,36.98 20.47,36.98 20.47,36.98
             20.47,36.98 20.47,43.98 20.47,43.98
             20.47,44.50 20.26,44.75 19.84,44.75 Z
           M 25.45,44.81
           C 25.23,44.81 25.08,44.75 25.00,44.61
             24.93,44.46 24.93,44.26 25.02,44.00
             25.02,44.00 27.50,36.38 27.50,36.38
             27.60,36.00 27.83,35.81 28.19,35.81
             28.19,35.81 28.28,35.81 28.28,35.81
             28.63,35.81 28.86,36.00 28.97,36.38
             28.97,36.38 31.47,44.00 31.47,44.00
             31.55,44.26 31.55,44.46 31.45,44.61
             31.37,44.75 31.22,44.81 31.02,44.81
             31.02,44.81 30.81,44.81 30.81,44.81
             30.47,44.81 30.24,44.64 30.12,44.30
             30.12,44.30 29.70,43.05 29.70,43.05
             29.70,43.05 26.73,43.05 26.73,43.05
             26.73,43.05 26.31,44.30 26.31,44.30
             26.20,44.64 25.97,44.81 25.62,44.81
             25.62,44.81 25.45,44.81 25.45,44.81 Z
           M 27.25,41.77
           C 27.25,41.77 29.38,41.77 29.38,41.77
             29.38,41.77 28.33,38.06 28.33,38.06
             28.33,38.06 27.25,41.77 27.25,41.77 Z
           M 34.84,44.75
           C 34.43,44.75 34.22,44.50 34.22,43.98
             34.22,43.98 34.22,36.52 34.22,36.52
             34.22,36.01 34.45,35.75 34.92,35.75
             34.92,35.75 37.97,35.75 37.97,35.75
             38.74,35.75 39.35,35.95 39.80,36.34
             40.24,36.73 40.47,37.39 40.47,38.33
             40.47,39.28 40.24,39.95 39.78,40.36
             39.32,40.76 38.70,40.95 37.92,40.95
             37.92,40.95 35.47,40.95 35.47,40.95
             35.47,40.95 35.47,44.00 35.47,44.00
             35.47,44.50 35.26,44.75 34.84,44.75 Z
           M 35.47,39.73
           C 35.47,39.73 37.86,39.73 37.86,39.73
             38.30,39.73 38.63,39.63 38.86,39.42
             39.10,39.20 39.22,38.84 39.22,38.34
             39.22,37.87 39.10,37.52 38.86,37.31
             38.63,37.09 38.30,36.98 37.86,36.98
             37.86,36.98 35.47,36.98 35.47,36.98
             35.47,36.98 35.47,39.73 35.47,39.73 Z" />
  <path id="orange"
        fill="#ed6d1f" stroke="none" stroke-width="1"
        d="M 20.34,6.14
           C 20.34,6.14 20.60,2.11 20.60,2.11
             20.62,1.72 20.32,1.39 19.93,1.39
             19.93,1.39 19.41,1.39 19.41,1.39
             19.02,1.39 18.71,1.72 18.73,2.11
             18.73,2.11 18.99,6.14 18.99,6.14
             19.02,6.49 19.31,6.77 19.67,6.77
             20.02,6.77 20.31,6.49 20.34,6.14 Z
           M 9.72,15.41
           C 9.72,15.41 5.69,15.15 5.69,15.15
             5.30,15.12 4.97,15.43 4.97,15.82
             4.97,15.82 4.97,16.34 4.97,16.34
             4.97,16.73 5.30,17.04 5.69,17.01
             5.69,17.01 9.72,16.75 9.72,16.75
             10.07,16.73 10.35,16.43 10.35,16.08
             10.35,15.72 10.07,15.43 9.72,15.41 Z
           M 13.08,9.49
           C 13.33,9.24 13.34,8.84 13.11,8.57
             13.11,8.57 10.45,5.54 10.45,5.54
             10.19,5.25 9.74,5.23 9.46,5.51
             9.46,5.51 9.09,5.88 9.09,5.88
             8.82,6.15 8.83,6.60 9.13,6.86
             9.13,6.86 12.16,9.52 12.16,9.52
             12.42,9.76 12.83,9.74 13.08,9.49 Z
           M 29.14,11.40
           C 28.80,11.74 28.54,12.12 28.36,12.54
             27.24,12.86 26.33,13.73 25.95,14.83
             25.41,14.99 24.91,15.28 24.51,15.65
             24.51,15.65 20.92,12.06 20.92,12.06
             18.92,10.06 16.54,10.36 15.22,11.68
             13.88,13.02 13.63,15.55 15.53,17.45
             15.53,17.45 20.64,22.56 20.64,22.56
             20.64,22.56 20.45,23.20 20.45,23.20
             19.99,24.80 20.42,26.52 21.60,27.69
             21.60,27.69 23.36,29.46 23.36,29.46
             24.53,30.72 26.36,31.15 27.96,30.57
             31.49,32.43 35.80,31.58 39.03,28.35
             42.01,25.37 43.51,20.50 38.77,15.77
             38.77,15.77 34.72,11.72 34.72,11.72
             32.80,9.80 30.41,10.12 29.14,11.40 Z
           M 36.89,17.64
           C 40.34,21.09 39.27,24.36 37.15,26.47
             34.54,29.08 31.02,29.79 28.22,27.58
             28.22,27.58 27.14,28.04 27.14,28.04
             26.50,28.31 25.75,28.15 25.29,27.63
             25.29,27.63 23.48,25.82 23.48,25.82
             22.99,25.33 22.81,24.61 23.00,23.95
             23.00,23.95 23.20,23.29 23.20,23.29
             23.20,23.29 25.20,25.29 25.20,25.29
             25.20,25.29 26.23,25.10 26.23,25.10
             26.23,25.10 26.82,25.00 26.82,25.00
             26.82,25.00 26.81,24.99 26.81,24.99
             26.81,24.99 26.83,24.99 26.83,24.99
             26.83,24.99 18.69,16.85 17.41,15.57
             16.66,14.83 16.68,13.97 17.10,13.55
             17.50,13.16 18.25,13.14 19.04,13.94
             20.29,15.19 24.31,19.20 25.61,20.50
             25.61,20.50 26.61,19.50 26.61,19.50
             26.61,19.50 26.61,19.50 26.61,19.50
             26.61,19.50 26.62,19.49 26.62,19.49
             25.89,18.76 25.92,18.00 26.32,17.60
             26.72,17.20 27.48,17.17 28.21,17.90
             28.21,17.90 28.94,17.17 28.94,17.17
             28.94,17.17 28.94,17.17 28.94,17.17
             28.94,17.17 28.95,17.16 28.95,17.16
             28.26,16.47 28.29,15.72 28.69,15.33
             29.07,14.94 29.79,14.91 30.50,15.61
             30.50,15.61 31.21,14.90 31.21,14.90
             31.21,14.90 31.21,14.90 31.21,14.90
             31.21,14.90 31.22,14.89 31.22,14.89
             30.62,14.29 30.66,13.63 31.01,13.28
             31.39,12.90 32.12,12.87 32.84,13.59
             33.88,14.63 35.46,16.21 36.89,17.64 Z" />
</svg>
